<svg width="64" height="72" viewBox="0 0 64 72" fill="none" xmlns="http://www.w3.org/2000/svg">
<path d="M28.0813 55.8C26.8812 55.8 25.9979 55.5 25.4313 54.9C24.8646 54.2667 24.3813 53.3333 23.9813 52.1C23.5813 50.8333 22.7979 47.4667 21.6313 42C20.8646 42.6667 19.6146 43.0333 17.8813 43.1L9.33125 43.4C7.29792 48.3667 5.79792 52.7833 4.83125 56.65C1.63125 55.5167 0.0312499 54.2333 0.0312499 52.8C0.0312499 52.1667 0.997917 49.8 2.93125 45.7C4.86458 41.6 7.04792 36.95 9.48125 31.75C11.9479 26.5167 13.6146 22.7167 14.4813 20.35L15.3813 17.9C15.1146 17.4333 14.4646 16.5833 13.4313 15.35C14.6313 14.95 15.6646 14.75 16.5313 14.75C17.4313 14.75 18.1646 14.8167 18.7313 14.95C19.3313 15.0833 19.8479 15.3167 20.2813 15.65C20.7479 15.95 21.1479 16.2667 21.4813 16.6C21.8479 16.9333 22.1813 17.4333 22.4813 18.1C22.7813 18.7333 23.0313 19.3167 23.2313 19.85C23.4313 20.35 23.6479 21.0667 23.8813 22C24.1479 22.9333 24.3479 23.75 24.4813 24.45C24.6479 25.1167 24.8479 26.0667 25.0813 27.3C25.3479 28.5 25.6146 29.6667 25.8813 30.8C26.1479 31.9333 26.6146 34.1 27.2813 37.3C27.9479 40.4667 28.4646 42.85 28.8313 44.45C29.2313 46.0167 29.7813 47.7833 30.4813 49.75C31.2146 51.7167 31.9813 53.2667 32.7813 54.4C30.8479 55.3333 29.2813 55.8 28.0813 55.8ZM17.6813 24.55C17.2146 25.6167 16.1813 27.9 14.5813 31.4C13.0146 34.8667 11.7979 37.6333 10.9313 39.7H21.1813C19.6146 32.5 18.4479 27.45 17.6813 24.55ZM43.4078 39.55C44.6078 32.7167 47.0578 28.4333 50.7578 26.7C51.6911 26.2667 52.6078 26.05 53.5078 26.05C55.2745 26.05 56.7745 26.7 58.0078 28C59.2411 29.3 59.8578 30.9667 59.8578 33C59.8578 35.0333 59.2745 36.7833 58.1078 38.25C56.9745 39.6833 55.3745 40.8 53.3078 41.6L53.9078 43.45C55.0078 46.8833 56.6078 50.2833 58.7078 53.65C60.8078 57.0167 62.5078 59.3167 63.8078 60.55C62.6078 60.85 61.5411 61 60.6078 61C57.2411 61 54.2911 58.55 51.7578 53.65C50.7578 51.7167 49.2911 48.1 47.3578 42.8C46.9245 42.8333 46.2911 42.85 45.4578 42.85C45.2578 42.6833 45.1578 42.15 45.1578 41.25C46.6911 41.2167 48.0578 40.95 49.2578 40.45C50.4578 39.95 51.3911 39.3 52.0578 38.5C53.3245 36.8667 53.9578 35.15 53.9578 33.35C53.9578 32.45 53.7578 31.7167 53.3578 31.15C52.9911 30.55 52.4578 30.25 51.7578 30.25C50.5245 30.25 49.2578 31.1333 47.9578 32.9C46.6911 34.6667 45.6078 37.1333 44.7078 40.3C43.8411 43.4333 43.4078 46.3833 43.4078 49.15C43.4078 51.8833 43.5078 53.8333 43.7078 55C42.6411 55.0667 41.9411 55.1 41.6078 55.1C39.7078 55.1 38.3411 54.7833 37.5078 54.15C36.6745 53.4833 36.2578 52.4333 36.2578 51C36.2578 49.5667 36.5578 46.8333 37.1578 42.8C38.9245 30.4 39.8078 20.9833 39.8078 14.55C39.8078 11.65 39.6078 9.7 39.2078 8.7C41.7078 9.36667 43.4078 10.3833 44.3078 11.75C45.2411 13.0833 45.7078 14.9833 45.7078 17.45C45.7078 19.1167 45.3745 22.6167 44.7078 27.95C44.0745 33.2833 43.6411 37.15 43.4078 39.55Z" fill="#D3342D"/>
</svg>
