<svg width="900" height="1024" viewBox="0 0 900 1024" fill="none" xmlns="http://www.w3.org/2000/svg">
<rect width="900" height="1024" fill="#090817"/>
<path d="M116.258 199.18L100.478 241H94.1781L78.3981 199.18H84.2181L97.3581 235.24L110.498 199.18H116.258ZM120.205 224.44C120.205 221.08 120.885 218.14 122.245 215.62C123.605 213.06 125.465 211.08 127.825 209.68C130.225 208.28 132.885 207.58 135.805 207.58C138.685 207.58 141.185 208.2 143.305 209.44C145.425 210.68 147.005 212.24 148.045 214.12V208.12H153.565V241H148.045V234.88C146.965 236.8 145.345 238.4 143.185 239.68C141.065 240.92 138.585 241.54 135.745 241.54C132.825 241.54 130.185 240.82 127.825 239.38C125.465 237.94 123.605 235.92 122.245 233.32C120.885 230.72 120.205 227.76 120.205 224.44ZM148.045 224.5C148.045 222.02 147.545 219.86 146.545 218.02C145.545 216.18 144.185 214.78 142.465 213.82C140.785 212.82 138.925 212.32 136.885 212.32C134.845 212.32 132.985 212.8 131.305 213.76C129.625 214.72 128.285 216.12 127.285 217.96C126.285 219.8 125.785 221.96 125.785 224.44C125.785 226.96 126.285 229.16 127.285 231.04C128.285 232.88 129.625 234.3 131.305 235.3C132.985 236.26 134.845 236.74 136.885 236.74C138.925 236.74 140.785 236.26 142.465 235.3C144.185 234.3 145.545 232.88 146.545 231.04C147.545 229.16 148.045 226.98 148.045 224.5ZM202.332 207.52C204.892 207.52 207.172 208.06 209.172 209.14C211.172 210.18 212.752 211.76 213.912 213.88C215.072 216 215.652 218.58 215.652 221.62V241H210.252V222.4C210.252 219.12 209.432 216.62 207.792 214.9C206.192 213.14 204.012 212.26 201.252 212.26C198.412 212.26 196.152 213.18 194.472 215.02C192.792 216.82 191.952 219.44 191.952 222.88V241H186.552V222.4C186.552 219.12 185.732 216.62 184.092 214.9C182.492 213.14 180.312 212.26 177.552 212.26C174.712 212.26 172.452 213.18 170.772 215.02C169.092 216.82 168.252 219.44 168.252 222.88V241H162.792V208.12H168.252V212.86C169.332 211.14 170.772 209.82 172.572 208.9C174.412 207.98 176.432 207.52 178.632 207.52C181.392 207.52 183.832 208.14 185.952 209.38C188.072 210.62 189.652 212.44 190.692 214.84C191.612 212.52 193.132 210.72 195.252 209.44C197.372 208.16 199.732 207.52 202.332 207.52ZM238.948 241.54C235.868 241.54 233.068 240.84 230.548 239.44C228.068 238.04 226.108 236.06 224.668 233.5C223.268 230.9 222.568 227.9 222.568 224.5C222.568 221.14 223.288 218.18 224.728 215.62C226.208 213.02 228.208 211.04 230.728 209.68C233.248 208.28 236.068 207.58 239.188 207.58C242.308 207.58 245.128 208.28 247.648 209.68C250.168 211.04 252.148 213 253.588 215.56C255.068 218.12 255.808 221.1 255.808 224.5C255.808 227.9 255.048 230.9 253.528 233.5C252.048 236.06 250.028 238.04 247.468 239.44C244.908 240.84 242.068 241.54 238.948 241.54ZM238.948 236.74C240.908 236.74 242.748 236.28 244.468 235.36C246.188 234.44 247.568 233.06 248.608 231.22C249.688 229.38 250.228 227.14 250.228 224.5C250.228 221.86 249.708 219.62 248.668 217.78C247.628 215.94 246.268 214.58 244.588 213.7C242.908 212.78 241.088 212.32 239.128 212.32C237.128 212.32 235.288 212.78 233.608 213.7C231.968 214.58 230.648 215.94 229.648 217.78C228.648 219.62 228.148 221.86 228.148 224.5C228.148 227.18 228.628 229.44 229.588 231.28C230.588 233.12 231.908 234.5 233.548 235.42C235.188 236.3 236.988 236.74 238.948 236.74ZM274.627 241.54C272.107 241.54 269.847 241.12 267.847 240.28C265.847 239.4 264.267 238.2 263.107 236.68C261.947 235.12 261.307 233.34 261.187 231.34H266.827C266.987 232.98 267.747 234.32 269.107 235.36C270.507 236.4 272.327 236.92 274.567 236.92C276.647 236.92 278.287 236.46 279.487 235.54C280.687 234.62 281.287 233.46 281.287 232.06C281.287 230.62 280.647 229.56 279.367 228.88C278.087 228.16 276.107 227.46 273.427 226.78C270.987 226.14 268.987 225.5 267.427 224.86C265.907 224.18 264.587 223.2 263.467 221.92C262.387 220.6 261.847 218.88 261.847 216.76C261.847 215.08 262.347 213.54 263.347 212.14C264.347 210.74 265.767 209.64 267.607 208.84C269.447 208 271.547 207.58 273.907 207.58C277.547 207.58 280.487 208.5 282.727 210.34C284.967 212.18 286.167 214.7 286.327 217.9H280.867C280.747 216.18 280.047 214.8 278.767 213.76C277.527 212.72 275.847 212.2 273.727 212.2C271.767 212.2 270.207 212.62 269.047 213.46C267.887 214.3 267.307 215.4 267.307 216.76C267.307 217.84 267.647 218.74 268.327 219.46C269.047 220.14 269.927 220.7 270.967 221.14C272.047 221.54 273.527 222 275.407 222.52C277.767 223.16 279.687 223.8 281.167 224.44C282.647 225.04 283.907 225.96 284.947 227.2C286.027 228.44 286.587 230.06 286.627 232.06C286.627 233.86 286.127 235.48 285.127 236.92C284.127 238.36 282.707 239.5 280.867 240.34C279.067 241.14 276.987 241.54 274.627 241.54ZM315.791 214.24C316.911 212.28 318.551 210.68 320.711 209.44C322.871 208.2 325.331 207.58 328.091 207.58C331.051 207.58 333.711 208.28 336.071 209.68C338.431 211.08 340.291 213.06 341.651 215.62C343.011 218.14 343.691 221.08 343.691 224.44C343.691 227.76 343.011 230.72 341.651 233.32C340.291 235.92 338.411 237.94 336.011 239.38C333.651 240.82 331.011 241.54 328.091 241.54C325.251 241.54 322.751 240.92 320.591 239.68C318.471 238.44 316.871 236.86 315.791 234.94V241H310.331V196.6H315.791V214.24ZM338.111 224.44C338.111 221.96 337.611 219.8 336.611 217.96C335.611 216.12 334.251 214.72 332.531 213.76C330.851 212.8 328.991 212.32 326.951 212.32C324.951 212.32 323.091 212.82 321.371 213.82C319.691 214.78 318.331 216.2 317.291 218.08C316.291 219.92 315.791 222.06 315.791 224.5C315.791 226.98 316.291 229.16 317.291 231.04C318.331 232.88 319.691 234.3 321.371 235.3C323.091 236.26 324.951 236.74 326.951 236.74C328.991 236.74 330.851 236.26 332.531 235.3C334.251 234.3 335.611 232.88 336.611 231.04C337.611 229.16 338.111 226.96 338.111 224.44ZM348.838 224.44C348.838 221.08 349.518 218.14 350.878 215.62C352.238 213.06 354.098 211.08 356.458 209.68C358.858 208.28 361.518 207.58 364.438 207.58C367.318 207.58 369.818 208.2 371.938 209.44C374.058 210.68 375.638 212.24 376.678 214.12V208.12H382.198V241H376.678V234.88C375.598 236.8 373.978 238.4 371.818 239.68C369.698 240.92 367.218 241.54 364.378 241.54C361.458 241.54 358.818 240.82 356.458 239.38C354.098 237.94 352.238 235.92 350.878 233.32C349.518 230.72 348.838 227.76 348.838 224.44ZM376.678 224.5C376.678 222.02 376.178 219.86 375.178 218.02C374.178 216.18 372.818 214.78 371.098 213.82C369.418 212.82 367.558 212.32 365.518 212.32C363.478 212.32 361.618 212.8 359.938 213.76C358.258 214.72 356.918 216.12 355.918 217.96C354.918 219.8 354.418 221.96 354.418 224.44C354.418 226.96 354.918 229.16 355.918 231.04C356.918 232.88 358.258 234.3 359.938 235.3C361.618 236.26 363.478 236.74 365.518 236.74C367.558 236.74 369.418 236.26 371.098 235.3C372.818 234.3 374.178 232.88 375.178 231.04C376.178 229.16 376.678 226.98 376.678 224.5ZM398.085 212.62V232C398.085 233.6 398.425 234.74 399.105 235.42C399.785 236.06 400.965 236.38 402.645 236.38H406.665V241H401.745C398.705 241 396.425 240.3 394.905 238.9C393.385 237.5 392.625 235.2 392.625 232V212.62H388.365V208.12H392.625V199.84H398.085V208.12H406.665V212.62H398.085ZM443.28 223.3C443.28 224.34 443.22 225.44 443.1 226.6H416.82C417.02 229.84 418.12 232.38 420.12 234.22C422.16 236.02 424.62 236.92 427.5 236.92C429.86 236.92 431.82 236.38 433.38 235.3C434.98 234.18 436.1 232.7 436.74 230.86H442.62C441.74 234.02 439.98 236.6 437.34 238.6C434.7 240.56 431.42 241.54 427.5 241.54C424.38 241.54 421.58 240.84 419.1 239.44C416.66 238.04 414.74 236.06 413.34 233.5C411.94 230.9 411.24 227.9 411.24 224.5C411.24 221.1 411.92 218.12 413.28 215.56C414.64 213 416.54 211.04 418.98 209.68C421.46 208.28 424.3 207.58 427.5 207.58C430.62 207.58 433.38 208.26 435.78 209.62C438.18 210.98 440.02 212.86 441.3 215.26C442.62 217.62 443.28 220.3 443.28 223.3ZM437.64 222.16C437.64 220.08 437.18 218.3 436.26 216.82C435.34 215.3 434.08 214.16 432.48 213.4C430.92 212.6 429.18 212.2 427.26 212.2C424.5 212.2 422.14 213.08 420.18 214.84C418.26 216.6 417.16 219.04 416.88 222.16H437.64ZM455.947 213.46C456.907 211.58 458.267 210.12 460.027 209.08C461.827 208.04 464.007 207.52 466.567 207.52V213.16H465.127C459.007 213.16 455.947 216.48 455.947 223.12V241H450.487V208.12H455.947V213.46ZM518.026 208.12V241H512.566V236.14C511.526 237.82 510.066 239.14 508.186 240.1C506.346 241.02 504.306 241.48 502.066 241.48C499.506 241.48 497.206 240.96 495.166 239.92C493.126 238.84 491.506 237.24 490.306 235.12C489.146 233 488.566 230.42 488.566 227.38V208.12H493.966V226.66C493.966 229.9 494.786 232.4 496.426 234.16C498.066 235.88 500.306 236.74 503.146 236.74C506.066 236.74 508.366 235.84 510.046 234.04C511.726 232.24 512.566 229.62 512.566 226.18V208.12H518.026ZM566.785 207.52C569.345 207.52 571.625 208.06 573.625 209.14C575.625 210.18 577.205 211.76 578.365 213.88C579.525 216 580.105 218.58 580.105 221.62V241H574.705V222.4C574.705 219.12 573.885 216.62 572.245 214.9C570.645 213.14 568.465 212.26 565.705 212.26C562.865 212.26 560.605 213.18 558.925 215.02C557.245 216.82 556.405 219.44 556.405 222.88V241H551.005V222.4C551.005 219.12 550.185 216.62 548.545 214.9C546.945 213.14 544.765 212.26 542.005 212.26C539.165 212.26 536.905 213.18 535.225 215.02C533.545 216.82 532.705 219.44 532.705 222.88V241H527.245V208.12H532.705V212.86C533.785 211.14 535.225 209.82 537.025 208.9C538.865 207.98 540.885 207.52 543.085 207.52C545.845 207.52 548.285 208.14 550.405 209.38C552.525 210.62 554.105 212.44 555.145 214.84C556.065 212.52 557.585 210.72 559.705 209.44C561.825 208.16 564.185 207.52 566.785 207.52ZM610.518 214.18C611.598 212.3 613.198 210.74 615.318 209.5C617.478 208.22 619.978 207.58 622.818 207.58C625.738 207.58 628.378 208.28 630.737 209.68C633.137 211.08 635.018 213.06 636.378 215.62C637.738 218.14 638.418 221.08 638.418 224.44C638.418 227.76 637.738 230.72 636.378 233.32C635.018 235.92 633.137 237.94 630.737 239.38C628.378 240.82 625.738 241.54 622.818 241.54C620.018 241.54 617.538 240.92 615.378 239.68C613.258 238.4 611.638 236.82 610.518 234.94V256.6H605.058V208.12H610.518V214.18ZM632.838 224.44C632.838 221.96 632.338 219.8 631.338 217.96C630.338 216.12 628.978 214.72 627.258 213.76C625.578 212.8 623.718 212.32 621.678 212.32C619.678 212.32 617.818 212.82 616.098 213.82C614.418 214.78 613.058 216.2 612.018 218.08C611.018 219.92 610.518 222.06 610.518 224.5C610.518 226.98 611.018 229.16 612.018 231.04C613.058 232.88 614.418 234.3 616.098 235.3C617.818 236.26 619.678 236.74 621.678 236.74C623.718 236.74 625.578 236.26 627.258 235.3C628.978 234.3 630.338 232.88 631.338 231.04C632.338 229.16 632.838 226.96 632.838 224.44ZM643.564 224.44C643.564 221.08 644.244 218.14 645.604 215.62C646.964 213.06 648.824 211.08 651.184 209.68C653.584 208.28 656.244 207.58 659.164 207.58C662.044 207.58 664.544 208.2 666.664 209.44C668.784 210.68 670.364 212.24 671.404 214.12V208.12H676.924V241H671.404V234.88C670.324 236.8 668.704 238.4 666.544 239.68C664.424 240.92 661.944 241.54 659.104 241.54C656.184 241.54 653.544 240.82 651.184 239.38C648.824 237.94 646.964 235.92 645.604 233.32C644.244 230.72 643.564 227.76 643.564 224.44ZM671.404 224.5C671.404 222.02 670.904 219.86 669.904 218.02C668.904 216.18 667.544 214.78 665.824 213.82C664.144 212.82 662.284 212.32 660.244 212.32C658.204 212.32 656.344 212.8 654.664 213.76C652.984 214.72 651.644 216.12 650.644 217.96C649.644 219.8 649.144 221.96 649.144 224.44C649.144 226.96 649.644 229.16 650.644 231.04C651.644 232.88 652.984 234.3 654.664 235.3C656.344 236.26 658.204 236.74 660.244 236.74C662.284 236.74 664.144 236.26 665.824 235.3C667.544 234.3 668.904 232.88 669.904 231.04C670.904 229.16 671.404 226.98 671.404 224.5ZM691.611 214.18C692.691 212.3 694.291 210.74 696.411 209.5C698.571 208.22 701.071 207.58 703.911 207.58C706.831 207.58 709.471 208.28 711.831 209.68C714.231 211.08 716.111 213.06 717.471 215.62C718.831 218.14 719.511 221.08 719.511 224.44C719.511 227.76 718.831 230.72 717.471 233.32C716.111 235.92 714.231 237.94 711.831 239.38C709.471 240.82 706.831 241.54 703.911 241.54C701.111 241.54 698.631 240.92 696.471 239.68C694.351 238.4 692.731 236.82 691.611 234.94V256.6H686.151V208.12H691.611V214.18ZM713.931 224.44C713.931 221.96 713.431 219.8 712.431 217.96C711.431 216.12 710.071 214.72 708.351 213.76C706.671 212.8 704.811 212.32 702.771 212.32C700.771 212.32 698.911 212.82 697.191 213.82C695.511 214.78 694.151 216.2 693.111 218.08C692.111 219.92 691.611 222.06 691.611 224.5C691.611 226.98 692.111 229.16 693.111 231.04C694.151 232.88 695.511 234.3 697.191 235.3C698.911 236.26 700.771 236.74 702.771 236.74C704.811 236.74 706.671 236.26 708.351 235.3C710.071 234.3 711.431 232.88 712.431 231.04C713.431 229.16 713.931 226.96 713.931 224.44ZM741.038 241.54C737.958 241.54 735.158 240.84 732.638 239.44C730.158 238.04 728.198 236.06 726.758 233.5C725.358 230.9 724.658 227.9 724.658 224.5C724.658 221.14 725.378 218.18 726.818 215.62C728.298 213.02 730.298 211.04 732.818 209.68C735.338 208.28 738.158 207.58 741.278 207.58C744.398 207.58 747.218 208.28 749.738 209.68C752.258 211.04 754.238 213 755.678 215.56C757.158 218.12 757.898 221.1 757.898 224.5C757.898 227.9 757.138 230.9 755.618 233.5C754.138 236.06 752.118 238.04 749.558 239.44C746.998 240.84 744.158 241.54 741.038 241.54ZM741.038 236.74C742.998 236.74 744.838 236.28 746.558 235.36C748.278 234.44 749.658 233.06 750.698 231.22C751.778 229.38 752.318 227.14 752.318 224.5C752.318 221.86 751.798 219.62 750.758 217.78C749.718 215.94 748.358 214.58 746.678 213.7C744.998 212.78 743.178 212.32 741.218 212.32C739.218 212.32 737.378 212.78 735.698 213.7C734.058 214.58 732.738 215.94 731.738 217.78C730.738 219.62 730.238 221.86 730.238 224.5C730.238 227.18 730.718 229.44 731.678 231.28C732.678 233.12 733.998 234.5 735.638 235.42C737.278 236.3 739.078 236.74 741.038 236.74ZM775.757 198.64C779.717 198.64 782.917 199.76 785.357 202C787.797 204.24 789.017 207.24 789.017 211C789.017 215.2 787.717 218.32 785.117 220.36C782.517 222.36 778.997 223.36 774.557 223.36L774.377 229.06H769.637L769.397 219.58H771.137C775.097 219.58 778.197 218.98 780.437 217.78C782.677 216.58 783.797 214.32 783.797 211C783.797 208.6 783.077 206.7 781.637 205.3C780.197 203.9 778.257 203.2 775.817 203.2C773.337 203.2 771.377 203.88 769.937 205.24C768.537 206.56 767.837 208.38 767.837 210.7H762.677C762.677 208.3 763.217 206.2 764.297 204.4C765.377 202.56 766.897 201.14 768.857 200.14C770.857 199.14 773.157 198.64 775.757 198.64ZM771.977 241.36C770.937 241.36 770.057 241 769.337 240.28C768.617 239.56 768.257 238.68 768.257 237.64C768.257 236.6 768.617 235.72 769.337 235C770.057 234.28 770.937 233.92 771.977 233.92C772.977 233.92 773.817 234.28 774.497 235C775.217 235.72 775.577 236.6 775.577 237.64C775.577 238.68 775.217 239.56 774.497 240.28C773.817 241 772.977 241.36 771.977 241.36Z" fill="#D3342D"/>
<path d="M135.699 712.294L384.669 856.079C390.889 859.67 397.945 861.561 405.128 861.561C412.31 861.561 419.365 859.67 425.586 856.079L769.917 657.289C772.429 655.834 774.515 653.745 775.965 651.229C777.415 648.714 778.178 645.862 778.178 642.959C778.178 640.056 777.415 637.203 775.965 634.688C774.515 632.173 772.429 630.083 769.917 628.629L514.327 480.25C511.06 478.359 507.352 477.364 503.577 477.364C499.802 477.364 496.094 478.359 492.827 480.25L135.699 686.49C133.445 687.806 131.574 689.689 130.274 691.953C128.974 694.217 128.29 696.782 128.29 699.392C128.29 702.002 128.974 704.567 130.274 706.831C131.574 709.095 133.445 710.978 135.699 712.294Z" fill="#FDEAE3"/>
<path d="M657.649 635.577L552.869 674.601C552.869 674.601 563.484 685.66 604.825 710.21L698.738 655.031" fill="url(#paint0_linear)"/>
<path d="M447.877 679.002L366.354 715.44C366.354 715.44 379.015 723.16 420.394 747.787L506.568 696.565" fill="url(#paint1_linear)"/>
<path d="M285.39 715.228L203.867 751.647C203.867 751.647 216.528 759.367 257.907 783.994L334.007 736.188" fill="url(#paint2_linear)"/>
<path d="M415.897 487.005C415.897 487.005 401.441 491.985 402.175 474.19C402.908 456.395 418.695 456.28 418.695 456.28C418.695 456.28 422.555 481.157 415.897 487.005Z" fill="#35406E"/>
<path d="M415.395 461.394C415.303 460.849 415.019 460.355 414.594 460.001C414.169 459.647 413.632 459.456 413.079 459.464C412.847 459.236 412.56 459.07 412.246 458.982C411.932 458.894 411.601 458.888 411.284 458.962C411.217 458.864 411.139 458.774 411.053 458.692C410.875 458.527 410.673 458.391 410.454 458.287C412.732 457.013 410.589 453.462 408.138 454.639L406.749 455.315C407.637 453.52 405.803 450.953 403.912 452.4C399.386 455.81 394.568 458.813 389.514 461.375C387.412 462.384 385.463 463.683 383.724 465.235C382.002 467.221 380.447 469.344 379.073 471.585C377.393 473.785 381.138 475.946 382.797 473.765C384.013 472.164 384.94 470.291 386.291 468.786L386.696 468.96L386.6 469.056C384.67 471.141 387.507 473.785 389.649 472.106L391.579 470.62C390.858 471.456 390.144 472.305 389.437 473.167C388.028 474.904 389.881 478.089 392.042 476.545L395.613 474.016C394.21 475.779 392.878 477.606 391.618 479.498C391.329 479.866 391.196 480.332 391.247 480.797C391.297 481.262 391.527 481.689 391.888 481.987C390.862 482.265 389.805 482.414 388.742 482.431C385.963 482.431 381.389 485.886 384.168 485.867C390.267 485.867 398.836 481.659 403.178 477.645C407.868 473.283 412.828 469.712 415.993 464.135C416.257 463.686 416.342 463.155 416.231 462.647C416.12 462.139 415.822 461.692 415.395 461.394Z" fill="#EF986C"/>
<path d="M466.212 678.654C466.212 673.347 466.463 668.039 466.501 662.732L443.168 667.286C443.168 667.286 444.326 676.319 441.778 679.561C439.231 682.804 419.776 692.299 417.46 695.31C415.144 698.321 414.449 703.976 428.114 703.455C441.778 702.934 452.663 693.457 455.674 692.763C458.685 692.068 464.861 691.238 466.83 689.829C466.714 686.123 466.193 682.36 466.212 678.654Z" fill="#2A343D"/>
<path d="M505.97 685.371C505.97 680.063 506.221 674.756 506.259 669.448L482.81 674.022C482.81 674.022 483.968 683.055 481.42 686.297C478.873 689.539 459.418 699.035 457.102 702.046C454.786 705.057 454.092 710.711 467.756 710.19C481.42 709.669 492.306 700.193 495.316 699.498C498.327 698.803 504.503 697.973 506.472 696.565C506.395 692.84 505.97 689.076 505.97 685.371Z" fill="#2A343D"/>
<path d="M495.201 457.785L483.37 459.927C483.503 458.445 483.535 456.956 483.466 455.469C480.996 455.334 478.525 455.102 476.074 454.793C469.165 453.944 463.471 447.073 456.987 444.449C454.188 457.843 453.435 487.14 450.154 508.39C446.005 535.313 433.344 660.261 436.934 670.625C436.934 670.625 436.799 674.37 458.376 675.566C458.376 675.566 463.529 678.519 471.095 667.846L478.815 534.792L475.302 677.612C481.826 683.595 491.63 686.393 509.637 677.38L518.303 496.52L495.201 457.785Z" fill="#35406E"/>
<path d="M477.56 449.332C479.452 449.537 481.35 449.698 483.254 449.814C481.787 424.454 473.893 367.789 457.006 444.468C463.582 447.089 470.507 448.727 477.56 449.332Z" fill="#35406E"/>
<path d="M647.447 541.777L646.139 541.442C643.805 540.845 641.429 542.252 640.831 544.586L614.016 649.326C613.419 651.66 614.826 654.036 617.16 654.634L618.469 654.969C620.803 655.566 623.179 654.159 623.776 651.825L650.591 547.084C651.189 544.751 649.781 542.375 647.447 541.777Z" fill="#D37E6A"/>
<path d="M658.324 554.671H656.973C654.564 554.671 652.611 556.624 652.611 559.033V667.151C652.611 669.56 654.564 671.513 656.973 671.513H658.324C660.733 671.513 662.686 669.56 662.686 667.151V559.033C662.686 556.624 660.733 554.671 658.324 554.671Z" fill="#D37E6A"/>
<path d="M672.862 541.107L671.544 541.406C669.195 541.94 667.723 544.277 668.257 546.626L692.211 652.058C692.744 654.407 695.081 655.879 697.43 655.345L698.748 655.046C701.097 654.512 702.569 652.175 702.035 649.826L678.081 544.394C677.548 542.045 675.211 540.573 672.862 541.107Z" fill="#D37E6A"/>
<path d="M658.266 592.132C681.951 592.132 701.151 581.297 701.151 567.93C701.151 554.564 681.951 543.728 658.266 543.728C634.582 543.728 615.382 554.564 615.382 567.93C615.382 581.297 634.582 592.132 658.266 592.132Z" fill="#CE4823"/>
<path d="M615.382 567.93V556.659H701.132V567.93" fill="#CE4823"/>
<path d="M658.266 580.861C681.951 580.861 701.151 570.025 701.151 556.659C701.151 543.292 681.951 532.457 658.266 532.457C634.582 532.457 615.382 543.292 615.382 556.659C615.382 570.025 634.582 580.861 658.266 580.861Z" fill="#D66449"/>
<path d="M643.714 494.725C642.363 495.362 641.939 497.717 641.514 498.971C640.8 501.036 639.97 503.043 639.179 505.07C633.389 519.719 627.869 534.387 624.762 549.865C624.047 553.378 623.16 556.331 626.113 559.052C631.381 563.916 639.623 565.711 646.416 566.888C660.135 569.308 674.264 567.519 686.946 561.754C689.052 560.77 690.725 559.048 691.646 556.914C692.567 554.78 692.674 552.382 691.945 550.174C686.329 533.248 673.012 493.895 670.541 493.586C667.395 493.143 657.919 488.009 643.714 494.725Z" fill="#F8403A"/>
<path d="M657.34 501.48C665.633 501.48 672.355 499.035 672.355 496.018C672.355 493.002 665.633 490.556 657.34 490.556C649.047 490.556 642.325 493.002 642.325 496.018C642.325 499.035 649.047 501.48 657.34 501.48Z" fill="#CE4823"/>
<path d="M650.488 494.918C648.973 490.775 647.167 486.745 645.084 482.856H645.335C648.829 481.563 647.979 475.348 647.362 472.588C647.296 472.377 647.17 472.19 647.001 472.048C646.832 471.906 646.625 471.815 646.406 471.787C646.187 471.759 645.964 471.793 645.764 471.887C645.564 471.982 645.395 472.131 645.277 472.318C644.13 474.355 643.279 476.545 642.749 478.822C642.337 478.14 641.913 477.458 641.475 476.776V476.66C641.784 475.753 642.093 474.846 642.382 473.939C642.528 473.522 642.651 473.096 642.749 472.665C643.509 470.107 643.816 467.436 643.656 464.772C643.641 464.574 643.581 464.383 643.482 464.212C643.36 463.971 643.161 463.777 642.916 463.662C642.672 463.546 642.395 463.516 642.131 463.575C640.472 463.884 639.7 466.277 639.275 467.686C638.847 469.26 638.607 470.88 638.561 472.511C637.557 471.057 636.464 469.609 635.28 468.168V468.033C636.342 464.849 638.098 459.792 635.743 456.762C635.602 456.62 635.426 456.518 635.233 456.467C635.039 456.416 634.836 456.418 634.643 456.473C633.061 456.859 632.713 458.499 632.713 459.927C632.642 461.766 632.738 463.607 633.003 465.428C631.356 463.536 629.625 461.709 627.811 459.947C626.769 458.924 625.148 460.526 626.209 461.548C627.271 462.571 628.023 463.363 628.911 464.289C626.46 463.652 624.067 463.672 623.295 465.717C621.558 470.311 630.764 469.693 633.389 469.384C634.032 470.182 634.675 470.993 635.319 471.816C634.491 471.743 633.66 471.91 632.925 472.299C632.511 472.456 632.146 472.722 631.871 473.07C631.596 473.418 631.42 473.834 631.363 474.273C631.306 474.713 631.368 475.16 631.545 475.567C631.722 475.974 632.005 476.325 632.366 476.583C633.33 477.071 634.421 477.253 635.492 477.104H639.044C639.642 478.031 640.24 479.034 640.8 479.941C640.061 479.687 639.278 479.585 638.498 479.642C637.719 479.698 636.959 479.912 636.264 480.27C635.923 480.467 635.635 480.745 635.425 481.079C635.215 481.413 635.09 481.793 635.059 482.186C635.029 482.579 635.095 482.974 635.251 483.336C635.407 483.698 635.649 484.017 635.956 484.265C637.693 485.712 640.973 484.998 642.981 484.728C643.129 484.709 643.273 484.664 643.405 484.593C645.268 488.141 646.893 491.81 648.269 495.574C648.79 496.887 650.99 496.308 650.488 494.918Z" fill="#1A7A23"/>
<path d="M628.911 461.973C628.911 461.973 627.927 450.104 618.161 449.911C618.161 449.911 615.343 461.201 628.911 461.973Z" fill="#1A7A23"/>
<path d="M662.3 494.552C663.926 490.155 665.861 485.879 668.09 481.756H667.82C664.114 480.385 665.021 473.785 665.658 470.87C665.725 470.646 665.856 470.445 666.035 470.293C666.213 470.141 666.432 470.044 666.665 470.013C666.897 469.983 667.134 470.02 667.345 470.121C667.557 470.221 667.735 470.381 667.858 470.581C669.075 472.739 669.978 475.059 670.541 477.471C670.979 476.738 671.429 476.017 671.892 475.309V475.174C671.564 474.209 671.236 473.244 670.946 472.279C670.793 471.836 670.664 471.385 670.56 470.928C669.756 468.22 669.429 465.392 669.595 462.571C669.614 462.36 669.68 462.155 669.788 461.973C669.919 461.715 670.133 461.508 670.395 461.385C670.658 461.263 670.954 461.232 671.236 461.298C672.992 461.626 673.822 464.154 674.266 465.659C674.718 467.329 674.971 469.045 675.019 470.774C676.125 469.243 677.27 467.737 678.454 466.258V466.123C677.315 462.745 675.463 457.399 677.972 454.176C678.122 454.024 678.311 453.915 678.518 453.861C678.725 453.806 678.943 453.809 679.149 453.867C680.809 454.272 681.195 456.029 681.272 457.534C681.351 459.469 681.254 461.407 680.982 463.324C682.732 461.317 684.566 459.387 686.483 457.534C687.602 456.453 689.301 458.152 688.181 459.233C687.062 460.313 686.251 461.163 685.325 462.147C687.93 461.471 690.459 461.491 691.269 463.672C693.103 468.554 683.337 467.898 680.577 467.532C679.895 468.381 679.252 469.236 678.647 470.098C679.527 470.015 680.412 470.189 681.195 470.6C681.631 470.769 682.015 471.052 682.304 471.419C682.594 471.787 682.779 472.226 682.84 472.69C682.901 473.154 682.836 473.626 682.652 474.057C682.468 474.487 682.171 474.86 681.793 475.136C680.775 475.652 679.624 475.847 678.493 475.695H674.729C674.092 476.68 673.455 477.625 672.799 478.706C673.583 478.44 674.412 478.334 675.237 478.394C676.063 478.453 676.868 478.678 677.605 479.054C677.963 479.265 678.266 479.56 678.486 479.913C678.706 480.266 678.838 480.667 678.87 481.081C678.902 481.496 678.834 481.913 678.671 482.296C678.508 482.678 678.255 483.016 677.933 483.28C676.003 484.824 672.606 484.052 670.483 483.782C670.32 483.761 670.163 483.708 670.02 483.628C668.042 487.369 666.314 491.238 664.848 495.208C664.056 496.636 661.721 496.018 662.3 494.552Z" fill="#1A7A23"/>
<path d="M685.132 459.618C685.132 459.618 686.174 447.035 696.519 446.823C696.538 446.823 699.53 458.75 685.132 459.618Z" fill="#1A7A23"/>
<path d="M655.97 493.49C656.957 488.006 657.557 482.46 657.764 476.892H658.093C662.725 477.703 665.813 470.369 666.835 466.991C666.905 466.717 666.892 466.43 666.8 466.163C666.707 465.896 666.539 465.662 666.316 465.49C666.092 465.318 665.823 465.215 665.542 465.193C665.26 465.172 664.979 465.233 664.732 465.37C662.187 466.861 659.867 468.706 657.842 470.851C657.842 469.835 657.842 468.825 657.842 467.821L657.977 467.725C658.903 466.933 659.81 466.142 660.698 465.331C661.118 464.968 661.518 464.581 661.895 464.173C664.347 461.866 666.378 459.149 667.897 456.145C668.01 455.916 668.069 455.666 668.071 455.411C668.095 455.069 668.004 454.729 667.811 454.445C667.619 454.162 667.336 453.951 667.009 453.848C665.079 453.134 662.628 455.237 661.219 456.511C659.747 457.955 658.451 459.568 657.359 461.317C657.153 459.078 656.883 456.846 656.549 454.62L656.703 454.504C659.907 451.706 665.002 447.305 664.423 442.519C664.361 442.272 664.233 442.046 664.053 441.866C663.873 441.686 663.647 441.558 663.4 441.496C661.47 440.917 660.003 442.499 659.019 443.985C657.771 445.943 656.706 448.01 655.834 450.162C655.243 447.048 654.522 443.953 653.673 440.878C653.576 440.51 653.336 440.195 653.007 440.003C652.677 439.811 652.285 439.758 651.917 439.855C651.548 439.953 651.233 440.192 651.041 440.522C650.85 440.851 650.796 441.243 650.894 441.612C651.318 443.175 651.724 444.738 652.071 446.321C649.794 444.063 647.188 442.557 645.026 444.391C640.221 448.251 650.643 453.481 653.692 454.793C653.885 456.067 654.059 457.36 654.213 458.653C653.359 458.044 652.347 457.696 651.299 457.65C648.925 457.553 646.821 459.58 647.96 461.954C648.679 463.1 649.729 464.002 650.971 464.54L654.831 466.76C654.831 468.168 654.927 469.558 654.947 470.967C654.306 470.218 653.522 469.604 652.64 469.163C651.758 468.722 650.797 468.463 649.813 468.4C649.305 468.384 648.802 468.494 648.347 468.721C647.893 468.948 647.501 469.284 647.209 469.699C646.916 470.114 646.731 470.595 646.67 471.1C646.609 471.604 646.674 472.115 646.86 472.588C647.844 475.271 651.878 476.564 654.233 477.567C654.41 477.641 654.6 477.68 654.792 477.683C654.568 482.739 654.007 487.775 653.113 492.757C652.862 494.571 655.641 495.42 655.97 493.49Z" fill="#1A7A23"/>
<path d="M653.403 443.85C653.403 443.85 659.887 430.34 649.369 423.875C649.369 423.856 639.14 434.393 653.403 443.85Z" fill="#1A7A23"/>
<path d="M508.402 559.901C508.402 559.901 506.028 545.06 520.657 539.192C535.287 533.325 534.978 558.377 534.978 558.377L542.312 555.501C542.312 555.501 546.597 529.041 520.908 530.874C495.22 532.708 499.196 562.487 499.196 562.487L508.402 559.901Z" fill="#CE4823"/>
<path d="M528.532 523.251L528.339 522.324C528.402 522.019 528.402 521.703 528.339 521.398L525.27 499.183C525.245 498.844 525.117 498.519 524.903 498.254C524.69 497.989 524.4 497.794 524.073 497.697C523.989 496.393 523.776 495.1 523.436 493.837C522.631 492.986 521.573 492.417 520.418 492.215C519.264 492.013 518.075 492.19 517.029 492.718C515.948 491.541 513.593 491.348 513.285 493.374C512.924 495.78 512.577 498.186 512.243 500.592H512.127L511.934 499.82C511.875 499.563 511.764 499.321 511.608 499.109C511.452 498.896 511.254 498.718 511.027 498.585C510.486 496.79 510.062 494.976 509.637 493.181C509 490.479 504.831 491.618 505.488 494.32C505.706 495.221 505.931 496.121 506.163 497.022C504.638 496.578 502.747 497.678 503.48 499.512C506.05 505.972 507.663 512.773 508.267 519.699C507.244 523.907 506.337 528.153 505.661 532.437C505.237 535.081 504.677 538.691 508.016 539.598C508.566 539.741 509.15 539.663 509.644 539.382C510.138 539.101 510.502 538.638 510.66 538.092C511.303 535.21 511.837 532.309 512.262 529.388C512.583 530.456 512.918 531.524 513.265 532.592C513.914 534.851 514.7 537.068 515.62 539.231C516.18 540.428 516.952 541.47 518.438 541.431C518.863 541.453 519.287 541.372 519.674 541.194C520.061 541.016 520.398 540.746 520.657 540.408C520.903 541.02 521.375 541.513 521.975 541.786C522.575 542.06 523.258 542.091 523.88 541.875C525.81 541.315 526.254 539.308 526.216 537.224C531.735 534.831 529.439 527.863 528.532 523.251Z" fill="#EF986C"/>
<path d="M527.818 487.7C526.469 473.284 524.213 458.967 521.063 444.835C518.65 433.525 516.045 414.727 511.876 403.88C508.614 395.427 500.296 392.609 490.858 391.123C481.302 389.435 471.612 388.627 461.908 388.71C461.513 388.727 461.118 388.662 460.75 388.517C454.426 389.528 448.717 392.892 444.77 397.936C435.834 409.188 434.444 415.692 426.377 427.465C419.169 437.972 410.47 447.373 400.553 455.372C408.177 458.171 413.465 465.872 415.607 473.611C416.793 478.025 416.892 482.66 415.897 487.121C428.538 473.128 452.567 444.178 452.567 444.178L453.3 470.195C466.559 481.678 488.04 478.61 498.057 476.371L503.847 513.89C514.23 517.924 527.972 513.272 527.972 513.272C527.972 513.272 529.304 505.282 527.818 487.7Z" fill="#F8403A"/>
<path d="M486.13 577.985C486.138 575.676 486.725 573.406 487.838 571.383C488.95 569.36 490.553 567.649 492.499 566.405C507.939 556.601 545.844 532.746 548.353 535.043C551.479 537.938 557.752 592.017 555.339 593.85C553.525 595.22 515.157 614.636 496.359 624.132C495.285 624.672 494.09 624.928 492.89 624.876C491.689 624.824 490.521 624.466 489.498 623.836C488.474 623.205 487.629 622.323 487.043 621.273C486.457 620.224 486.149 619.042 486.149 617.84L486.13 577.985Z" fill="#CE4823"/>
<path d="M460.769 388.459C460.769 388.459 457.72 408.068 475.457 408.068C493.193 408.068 494.12 392.184 494.12 392.184C483.256 389.258 472.011 388.002 460.769 388.459Z" fill="#F2F2F2"/>
<path d="M485.956 386.375C485.956 386.375 480.957 391.393 476.422 391.779C472.562 392.107 468.007 387.263 466.656 385.719C466.568 390.468 467.333 395.194 468.914 399.673C469.667 400.946 470.4 401.796 470.844 401.603C472.6 400.908 475.901 396.218 475.901 396.218C475.901 396.218 479.587 401.834 481.15 401.641C482.713 401.448 487.828 392.377 487.828 392.377L485.956 386.375Z" fill="#35406E"/>
<path d="M497.073 353.43C496.01 351.99 494.48 350.964 492.744 350.527C491.009 350.091 489.175 350.271 487.558 351.037C487.495 350.896 487.41 350.766 487.307 350.651C485.377 348.47 484.393 346.173 481.285 345.305C478.427 344.635 475.442 344.741 472.639 345.613C469.949 346.286 467.633 347.992 466.193 350.361C465.962 350.219 465.692 350.151 465.421 350.168C462.39 350.299 459.531 351.613 457.46 353.829C455.388 356.045 454.269 358.986 454.342 362.018C454.593 367.249 458.724 373.116 464.147 373.483C466.742 374.411 469.506 374.773 472.253 374.544C472.837 374.49 473.397 374.28 473.873 373.936C474.348 373.592 474.723 373.126 474.958 372.588C475.192 372.05 475.278 371.459 475.206 370.876C475.135 370.293 474.908 369.74 474.55 369.275L474.936 369.024L475.244 369.14C475.675 369.662 476.289 369.998 476.961 370.081C477.632 370.164 478.309 369.986 478.853 369.584L479.297 369.314C479.965 369.147 480.612 368.908 481.227 368.6L481.98 368.851L481.729 369.623C481.55 370.276 481.592 370.97 481.846 371.598C482.101 372.226 482.555 372.752 483.138 373.097C483.745 373.37 484.402 373.514 485.068 373.521C483.641 375.584 481.767 377.299 479.587 378.539C476.634 380.025 478.313 383.982 481.015 384.213C479.703 385.198 480.204 391.2 481.748 390.331C485.588 388.229 488.945 385.347 491.604 381.871C494.263 378.394 496.165 374.399 497.188 370.144C498.018 366.11 499.794 356.865 497.073 353.43Z" fill="#2A343D"/>
<path d="M461.754 365.608C461.001 365.473 460.962 390.988 471.404 392.628C484.586 394.751 489.526 379.118 489.526 379.118C489.526 379.118 491.456 367.538 483.235 363.678C475.013 359.818 471.23 367.307 461.754 365.608Z" fill="#EF986C"/>
<path d="M461.754 365.608C461.754 365.608 472.137 367.538 477.696 365.608C483.254 363.678 475.283 381.55 479.375 381.55C483.466 381.55 483.235 371.9 486.381 375.509C489.526 379.118 481.633 390.331 481.633 390.331C481.633 390.331 492.827 384.696 495.413 375.027C497.999 365.357 485.647 356.171 473.816 357.136C461.985 358.101 461.754 365.608 461.754 365.608Z" fill="#2A343D"/>
<path d="M402.175 474.19L402.696 473.997C405.282 473.09 404.201 468.96 401.557 469.848L400.611 470.137C400.748 469.767 400.783 469.367 400.713 468.979C400.642 468.591 400.468 468.229 400.21 467.931C399.951 467.634 399.618 467.411 399.244 467.286C398.869 467.161 398.469 467.139 398.083 467.223C396.376 467.56 394.698 468.031 393.065 468.632C392.312 468.747 391.56 468.96 390.807 469.153C388.388 469.783 386.001 470.523 383.647 471.372L383.762 471.179C384.843 469.076 388.858 466.238 386.426 464.463C383.048 462.012 376.216 471.835 375.348 473.823C373.583 477.552 370.573 480.549 366.836 482.296C364.791 483.319 370.407 481.061 372.24 481.273C372.435 481.575 372.691 481.832 372.993 482.026C373.183 482.338 373.442 482.602 373.75 482.799C374.057 482.997 374.406 483.122 374.769 483.165C374.811 483.459 374.917 483.74 375.079 483.99C375.24 484.24 375.454 484.452 375.705 484.611C375.956 484.77 376.239 484.874 376.534 484.914C376.828 484.954 377.128 484.93 377.413 484.844L378.455 484.496C377.284 485.371 376.126 486.265 374.981 487.179C373.147 488.646 375.251 491.406 377.22 490.73C377.544 491.03 377.952 491.226 378.389 491.291C378.826 491.357 379.273 491.289 379.671 491.097C383.801 489.193 387.867 487.153 391.868 484.979C394.083 483.951 396.196 482.717 398.18 481.292C398.534 481.277 398.881 481.191 399.202 481.042C401.039 480.401 402.612 479.173 403.68 477.548C403.828 477.232 403.906 476.887 403.908 476.538C403.911 476.189 403.838 475.843 403.696 475.525C403.553 475.206 403.343 474.922 403.081 474.692C402.818 474.461 402.509 474.29 402.175 474.19Z" fill="#CE4823"/>
<path d="M387.931 466.47C387.855 466.085 387.678 465.726 387.418 465.432C387.158 465.137 386.825 464.917 386.452 464.793C386.079 464.669 385.68 464.647 385.296 464.728C384.911 464.809 384.555 464.99 384.264 465.254C381.326 467.76 378.969 470.875 377.355 474.383C377.207 474.933 377.282 475.52 377.563 476.015C377.845 476.51 378.311 476.874 378.86 477.027C383.261 477.992 387.005 472.704 389.07 469.5C389.261 469.241 389.384 468.939 389.428 468.62C389.472 468.302 389.436 467.977 389.323 467.676C389.21 467.375 389.023 467.107 388.78 466.896C388.537 466.686 388.245 466.539 387.931 466.47Z" fill="#EF986C"/>
<path d="M394.763 480.327C394.279 480.212 393.77 480.259 393.316 480.463C393.181 480.167 392.986 479.903 392.744 479.687C392.501 479.471 392.216 479.308 391.907 479.208C391.357 479.07 390.775 479.15 390.283 479.43C389.79 479.71 389.425 480.17 389.263 480.713C388.877 481.704 388.517 482.695 388.182 483.686C388.053 483.445 387.875 483.235 387.658 483.069C387.442 482.902 387.193 482.784 386.928 482.721C386.378 482.583 385.796 482.662 385.303 482.943C384.811 483.223 384.445 483.683 384.283 484.226L383.608 486.812C383.517 487.341 383.626 487.886 383.914 488.339C384.202 488.792 384.648 489.122 385.166 489.264C385.684 489.406 386.236 489.351 386.715 489.108C387.194 488.865 387.566 488.453 387.757 487.951V487.816C387.997 488.109 388.308 488.335 388.66 488.474C389.012 488.613 389.394 488.66 389.77 488.61C390.145 488.559 390.501 488.414 390.804 488.187C391.107 487.96 391.347 487.66 391.502 487.314C391.756 487.588 392.085 487.783 392.447 487.874C392.997 488.012 393.579 487.932 394.072 487.652C394.564 487.371 394.93 486.912 395.091 486.368L396.23 482.952C396.374 482.41 396.302 481.833 396.028 481.343C395.754 480.853 395.301 480.489 394.763 480.327Z" fill="#EF986C"/>
<path d="M310.364 717.524C310.191 711.02 302.857 710.673 300.869 706.215C300.278 704.458 300.112 702.586 300.386 700.753C299.999 700.751 299.615 700.67 299.26 700.514C298.905 700.358 298.586 700.132 298.322 699.848C298.057 699.564 297.854 699.229 297.725 698.863C297.595 698.498 297.542 698.109 297.569 697.723C297.759 694.432 298.409 691.184 299.499 688.073L289.366 678.77C289.366 678.77 281.241 691.74 280.488 694.557C279.735 697.375 279.156 718.991 279.813 721.076C280.469 723.16 284.117 722.658 285.95 722.195C287.784 721.732 285.95 705.211 287.706 706.079C289.463 706.948 290.524 721.133 292.859 724.299C295.195 727.464 309.419 726.113 309.419 726.113C309.419 726.113 310.557 724.028 310.364 717.524Z" fill="#273238"/>
<path d="M300.02 698.282C298.244 686.027 302.432 664.141 302.432 664.141L285.661 665.414L282.978 689.945C283.297 690.35 283.491 690.84 283.538 691.354C283.526 691.463 283.526 691.573 283.538 691.682L283.846 692.203C284.927 693.438 287.88 693.592 289.212 694.307C292.145 695.908 292.782 698.572 293.072 701.563C293.767 706.987 293.767 715.266 308.512 713.028C308.57 713.028 301.795 710.519 300.02 698.282Z" fill="#CE4823"/>
<path d="M334.509 727.541C334.007 721.056 326.673 721.056 324.492 716.694C323.816 714.972 323.558 713.113 323.739 711.271C323.351 711.29 322.962 711.228 322.598 711.09C322.234 710.953 321.903 710.741 321.624 710.47C321.345 710.198 321.125 709.872 320.978 709.512C320.831 709.152 320.759 708.765 320.767 708.376C320.808 705.107 321.302 701.86 322.234 698.726L311.658 689.868C311.658 689.868 304.169 703.204 303.552 706.06C302.934 708.917 303.397 730.533 304.169 732.578C304.941 734.624 308.531 733.949 310.345 733.408C312.159 732.868 309.592 716.444 311.329 717.216C313.066 717.988 314.881 732.115 317.37 735.165C319.86 738.214 334.007 736.168 334.007 736.168C334.007 736.168 334.991 734.026 334.509 727.541Z" fill="#273238"/>
<path d="M323.238 708.82C320.883 696.68 323.99 674.601 323.99 674.601L307.296 676.686L305.79 701.332C306.131 701.717 306.352 702.193 306.427 702.702C306.417 702.805 306.417 702.908 306.427 703.011L306.775 703.513C307.913 704.69 310.866 704.709 312.237 705.443C315.247 706.89 316.097 709.534 316.405 712.506C317.37 717.891 317.756 726.171 332.386 723.199C332.482 723.16 325.592 720.96 323.238 708.82Z" fill="#CE4823"/>
<path d="M286.047 451.686C286.047 451.686 276.397 454.523 271.9 478.224C267.403 501.924 264.836 515.241 269.815 522.305C274.795 529.369 292.126 541.026 292.126 541.026L312.545 513.62" fill="#FACA66"/>
<path d="M290.601 508.39C290.601 508.39 267.441 459.966 286.046 451.686C304.652 443.406 327.696 455.546 331.537 467.782C335.377 480.019 329.78 516.785 329.78 516.785C329.78 516.785 305.25 517.48 290.601 508.39Z" fill="#FACA66"/>
<path d="M328.41 462.108C328.41 462.108 344.487 489.128 356.858 485.403C369.23 481.678 372.626 476.12 372.626 476.12C372.626 476.12 383.145 487.256 381.292 500.245C381.292 500.245 367.782 513.581 354.272 515.434C340.762 517.287 323.855 499.994 323.855 499.994" fill="#FACA66"/>
<path d="M284.348 680.275C302.49 689.597 312.874 698.668 332.907 694.036C338.581 692.666 343.657 611.548 343.676 607.399C343.811 580.707 347.401 563.684 340.646 537.803C339.701 534.194 334.335 514.141 330.263 513.62L290.621 508.37C290.621 508.37 282.901 521.88 282.515 551.023C282.283 570.458 285.004 589.758 285.429 609.155C285.43 620.423 284.285 631.662 282.013 642.698C280.971 648.353 279.06 654.645 277.709 660.84C276.898 665.594 276.414 670.398 276.261 675.219C278.816 677.119 281.521 678.81 284.348 680.275Z" fill="#BC3B1D"/>
<path d="M292.03 455.353C291.238 454.929 287.359 447.633 292.57 445.703C297.781 443.773 314.9 445.626 314.9 448.849C314.9 452.072 314.9 456.82 314.9 456.82C311.187 458.135 307.246 458.683 303.314 458.431C299.383 458.179 295.544 457.132 292.03 455.353Z" fill="#E5572C"/>
<path d="M291.142 506.46C285.876 494.136 282.888 480.96 282.322 467.57C282.322 466.142 280.025 466.142 280.102 467.57C280.7 481.349 283.793 494.905 289.231 507.579C289.81 508.93 291.74 507.753 291.142 506.46Z" fill="#CE4823"/>
<path d="M272.189 435.378C267.557 443.407 278.462 459.561 267.596 464.077C265.111 464.919 262.499 465.323 259.876 465.273C257.153 465.255 254.458 465.814 251.966 466.911C249.475 468.009 247.244 469.621 245.42 471.642C239.63 478.533 240.035 489.881 245.246 497.041C251.191 505.205 261.304 506.267 270.008 502.387C290.582 493.239 277.439 454.137 292.937 443.657L293.689 426.056C293.689 426.056 278.114 425.149 272.189 435.378Z" fill="#ED913E"/>
<path d="M320.439 421.501C320.439 421.501 320.034 446.823 315.074 450.007C310.114 453.192 296.411 448.463 295.774 441.438C295.137 434.413 320.439 421.501 320.439 421.501Z" fill="#CE4823"/>
<path d="M306.466 409.361C306.466 409.361 297.723 405.926 285.004 413.221C272.286 420.517 276.454 444.101 291.296 448.926C306.138 453.751 309.921 439.276 312.719 433.486C315.518 427.696 320.439 425.593 320.343 422.891C320.246 420.189 320.034 408.956 306.466 409.361Z" fill="#ED913E"/>
<path d="M363.15 510.358C349.061 520.684 329.915 505.572 322.253 493.818C321.578 492.776 319.899 493.818 320.594 494.783C328.777 507.347 349.119 523 364.134 512.018C365.08 511.285 364.057 509.605 363.15 510.358Z" fill="#CE4823"/>
<defs>
<linearGradient id="paint0_linear" x1="702.926" y1="602.053" x2="593.997" y2="690.698" gradientUnits="userSpaceOnUse">
<stop stop-color="#E3965D"/>
<stop offset="1" stop-color="#FDEAE3"/>
</linearGradient>
<linearGradient id="paint1_linear" x1="32810.6" y1="12499.1" x2="29441" y2="18090.1" gradientUnits="userSpaceOnUse">
<stop stop-color="#E3965D"/>
<stop offset="1" stop-color="#FDEAE3"/>
</linearGradient>
<linearGradient id="paint2_linear" x1="18608.2" y1="14060.6" x2="15416.1" y2="18979" gradientUnits="userSpaceOnUse">
<stop stop-color="#E3965D"/>
<stop offset="1" stop-color="#FDEAE3"/>
</linearGradient>
</defs>
</svg>
